#!OML:ASF F:\VICON\USERDATA\INSTALL\rory3\rory3.ASF
:FULLY-SPECIFIED
:DEGREES
451
root 0.932215 18.0255 -1.153 4.59501 -29.8712 0.830371
lowerback 2.77367 -0.488963 -4.3738
upperback 2.65709 -0.748289 1.42284
thorax 1.25578 -0.463423 3.93293
lowerneck -11.0002 0.0224168 -12.6612
upperneck 16.5152 1.37435 5.21378
head 6.73654 0.30607 3.89654
rclavicle -3.67752e-015 -1.78906e-014
rhumerus -33.7986 -1.06481 -77.1659
rradius 51.138
rwrist 14.1689
rhand -26.7897 11.9498
rfingers 7.12502
rthumb -0.216997 -18.0299
lclavicle -3.67752e-015 -1.78906e-014
lhumerus 2.09949 -30.5445 77.3662
lradius 116.002
lwrist 6.31713
lhand -31.5343 44.9096
lfingers 7.12502
lthumb -4.79904 74.8353
rfemur -14.1604 2.92506 11.2269
rtibia 22.5667
rfoot -13.558 -11.6053
rtoes 4.52567
lfemur -7.68232 1.24514 -22.6888
ltibia 16.7443
lfoot -9.43932 5.78594
ltoes -12.1766
452
root 0.934597 18.0272 -1.1567 4.61666 -29.8382 0.805916
lowerback 2.73385 -0.448357 -4.29848
upperback 2.75308 -0.690114 1.36681
thorax 1.36918 -0.43736 3.83053
lowerneck -11.1371 0.0310518 -12.5325
upperneck 16.6792 1.38822 5.17161
head 6.8129 0.31282 3.86797
rclavicle -4.5969e-014 1.37161e-014
rhumerus -33.7308 -1.12921 -77.288
rradius 51.4715
rwrist 14.216
rhand -26.7718 11.8935
rfingers 7.12502
rthumb -0.199716 -18.0862
lclavicle -4.5969e-014 1.37161e-014
lhumerus 2.02527 -30.7872 77.3458
lradius 116.061
lwrist 6.38492
lhand -31.4604 45.0907
lfingers 7.12502
lthumb -4.7277 75.018
rfemur -14.1685 2.93873 11.2485
rtibia 22.5592
rfoot -13.6156 -11.6232
rtoes 4.71247
lfemur -7.69827 1.1365 -22.6467
ltibia 16.7091
lfoot -9.41723 5.78044
ltoes -11.4439
453
root 0.935678 18.028 -1.16231 4.63651 -29.8289 0.800352
lowerback 2.72576 -0.346704 -4.2342
upperback 2.87143 -0.55158 1.26939
thorax 1.48007 -0.371083 3.69091
lowerneck -11.4742 -0.0454944 -12.338
upperneck 16.9002 1.29455 5.1642
head 6.95266 0.275368 3.83462
rclavicle -2.03257e-014 1.98785e-016
rhumerus -33.7343 -1.22832 -77.3794
rradius 51.96
rwrist 14.123
rhand -26.6789 11.9627
rfingers 7.12502
rthumb -0.109951 -18.017
lclavicle -2.03257e-014 1.98785e-016
lhumerus 2.09836 -31.0652 77.2017
lradius 116.166
lwrist 6.69675
lhand -31.2948 44.8755
lfingers 7.12502
lthumb -4.56783 74.8062
rfemur -14.2 2.9469 11.2604
rtibia 22.5393
rfoot -13.6318 -11.674
rtoes 4.66526
lfemur -7.73649 1.15508 -22.6241
ltibia 16.6831
lfoot -9.37041 5.71533
ltoes -11.2328
454
root 0.938065 18.0269 -1.16343 4.6232 -29.7996 0.770682
lowerback 2.71346 -0.27603 -4.1246
upperback 2.9322 -0.454368 1.22362
thorax 1.53846 -0.322582 3.58017
lowerneck -11.53 -0.0861921 -12.2565
upperneck 17.062 1.23782 5.12101
head 7.02107 0.244606 3.80625
rclavicle 4.02539e-015 1.19271e-014
rhumerus -33.811 -1.21309 -77.4219
rradius 52.4218
rwrist 13.9761
rhand -26.5702 12.135
rfingers 7.12502
rthumb -0.00494403 -17.8447
lclavicle 4.02539e-015 1.19271e-014
lhumerus 1.92447 -31.1984 77.2775
lradius 116.32
lwrist 7.17161
lhand -30.9241 44.7692
lfingers 7.12502
lthumb -4.20982 74.7074
rfemur -14.1632 2.88408 11.2876
rtibia 22.5278
rfoot -13.6048 -11.6682
rtoes 4.85265
lfemur -7.70491 1.14688 -22.5964
ltibia 16.6709
lfoot -9.35611 5.69028
ltoes -11.1392
455
root 0.940288 18.0268 -1.16509 4.60559 -29.7468 0.737623
lowerback 2.7298 -0.248251 -4.08462
upperback 2.92883 -0.4178 1.25701
thorax 1.52227 -0.30349 3.59185
lowerneck -11.4322 -0.05203 -12.294
upperneck 17.2408 1.28906 5.05211
head 7.05831 0.253441 3.79674
rclavicle 6.96243e-014 4.77083e-015
rhumerus -33.8652 -1.10161 -77.4141
rradius 52.8314
rwrist 13.9099
rhand -26.5431 11.939
rfingers 7.12502
rthumb 0.0212208 -18.0408
lclavicle 6.96243e-014 4.77083e-015
lhumerus 1.5543 -31.2695 77.5501
lradius 116.424
lwrist 7.49698
lhand -30.7248 45.1641
lfingers 7.12502
lthumb -4.01741 75.1059
rfemur -14.1277 2.88163 11.3183
rtibia 22.5512
rfoot -13.6208 -11.6994
rtoes 5.44905
lfemur -7.66281 1.18079 -22.5668
ltibia 16.6386
lfoot -9.36824 5.61533
ltoes -11.0382
